# xmcd CD database file
#
# Track frame offsets:
#	150
#	15581
#	31128
#	50274
#	66407
#	81889
#	99040
#	114371
#	125704
#	139891
#	154123
#
# Disc length: 2310 seconds
#
# Revision: 0
# Processed by: cddbd v1.5.1PL0 Copyright (c) Steve Scherf et al.
# Submitted via: CDex 1.51
#
DISCID=8709040b
DTITLE=Katie - Melua
DYEAR=1900
DGENRE=Jazz
TTITLE0=call of the search
TTITLE1=crawling up a hilll
TTITLE2=the closest thing to crazy
TTITLE3=my aphrodisiac is you
TTITLE4=leamin' the blues
TTITLE5=blame it on the moon
TTITLE6=belfast (penguins an cats)
TTITLE7=i think it's going to rain today
TTITLE8=mocking bird song
TTITLE9=tiger in the night
TTITLE10=lilae wine
EXTD=
EXTT0=
EXTT1=
EXTT2=
EXTT3=
EXTT4=
EXTT5=
EXTT6=
EXTT7=
EXTT8=
EXTT9=
EXTT10=
PLAYORDER=
